<mxfile host="app.diagrams.net" modified="2024-04-12T12:37:51.970Z" agent="Mozilla/5.0 (Windows NT 10.0; Win64; x64) AppleWebKit/537.36 (KHTML, like Gecko) Chrome/123.0.0.0 Safari/537.36 Edg/123.0.0.0" etag="5BVNL1YBqqRroXa9aiHB" version="24.2.3" type="device">
  <diagram name="Page-1" id="rEAYuiR4Wdk2qMLaIThJ">
    <mxGraphModel dx="927" dy="401" grid="1" gridSize="10" guides="1" tooltips="1" connect="1" arrows="1" fold="1" page="1" pageScale="1" pageWidth="850" pageHeight="1100" math="0" shadow="0">
      <root>
        <mxCell id="0" />
        <mxCell id="1" parent="0" />
        <mxCell id="SG9qALcm7S1IvZvgK0gM-2" value="&lt;p style=&quot;margin: 4px 0px 0px; text-align: center; line-height: 100%;&quot;&gt;&lt;b&gt;&lt;font face=&quot;Helvetica&quot;&gt;Bank&lt;/font&gt;&lt;/b&gt;&lt;/p&gt;&lt;hr size=&quot;1&quot; style=&quot;border-style: solid; line-height: 100%;&quot;&gt;&lt;p style=&quot;--font-size: 13.3333px; --line-height: 1.4; line-height: 150%; margin-top: 0px; padding-left: 4px; margin-bottom: 0px; margin-right: 0px;&quot; class=&quot;cvGsUA direction-ltr align-start para-style-body&quot;&gt;&lt;span style=&quot;&quot; class=&quot;OYPEnA text-decoration-none text-strikethrough-none&quot;&gt;&lt;font face=&quot;Helvetica&quot;&gt;- BankId: int&lt;/font&gt;&lt;/span&gt;&lt;/p&gt;&lt;p style=&quot;--font-size: 13.3333px; --line-height: 1.4; line-height: 150%; margin-top: 0px; padding-left: 4px; margin-bottom: 0px; margin-right: 0px;&quot; class=&quot;cvGsUA direction-ltr align-start para-style-body&quot;&gt;&lt;span style=&quot;&quot; class=&quot;OYPEnA text-decoration-none text-strikethrough-none&quot;&gt;&lt;font face=&quot;Helvetica&quot;&gt;- countId : static int&lt;/font&gt;&lt;/span&gt;&lt;/p&gt;&lt;p style=&quot;--font-size: 13.3333px; --line-height: 1.4; line-height: 150%; margin-top: 0px; padding-left: 4px; margin-bottom: 0px; margin-right: 0px;&quot; class=&quot;cvGsUA direction-ltr align-start para-style-body&quot;&gt;&lt;span style=&quot;&quot; class=&quot;OYPEnA text-decoration-none text-strikethrough-none&quot;&gt;&lt;font face=&quot;Helvetica&quot;&gt;+ name: string&lt;/font&gt;&lt;/span&gt;&lt;/p&gt;&lt;p style=&quot;--font-size: 13.3333px; --line-height: 1.4; line-height: 150%; margin-top: 0px; padding-left: 4px; margin-bottom: 0px; margin-right: 0px;&quot; class=&quot;cvGsUA direction-ltr align-start para-style-body&quot;&gt;&lt;span style=&quot;&quot; class=&quot;OYPEnA text-decoration-none text-strikethrough-none&quot;&gt;&lt;font face=&quot;Helvetica&quot;&gt;+ location: string&lt;/font&gt;&lt;/span&gt;&lt;/p&gt;&lt;p style=&quot;--font-size: 13.3333px; --line-height: 1.4; line-height: 150%; margin-top: 0px; padding-left: 4px; margin-bottom: 0px; margin-right: 0px;&quot; class=&quot;cvGsUA direction-ltr align-start para-style-body&quot;&gt;&lt;span style=&quot;&quot; class=&quot;OYPEnA text-decoration-none text-strikethrough-none&quot;&gt;&lt;font face=&quot;Helvetica&quot;&gt;+ teller : Teller&lt;/font&gt;&lt;/span&gt;&lt;/p&gt;&lt;hr&gt;&lt;p style=&quot;--font-size: 13.3333px; --line-height: 1.4; line-height: 150%; margin-top: 0px; padding-left: 4px; margin-bottom: 0px; margin-right: 0px;&quot; class=&quot;cvGsUA direction-ltr align-start para-style-body&quot;&gt;&lt;font face=&quot;Helvetica&quot;&gt;+ Bank()&lt;/font&gt;&lt;/p&gt;&lt;p style=&quot;--font-size: 13.3333px; --line-height: 1.4; line-height: 150%; margin-top: 0px; padding-left: 4px; margin-bottom: 0px; margin-right: 0px;&quot; class=&quot;cvGsUA direction-ltr align-start para-style-body&quot;&gt;&lt;font face=&quot;Helvetica&quot;&gt;+ Bank(newName : string, newLocation : string)&lt;/font&gt;&lt;/p&gt;&lt;p style=&quot;--font-size: 13.3333px; --line-height: 1.4; line-height: 150%; margin-top: 0px; padding-left: 4px; margin-bottom: 0px; margin-right: 0px;&quot; class=&quot;cvGsUA direction-ltr align-start para-style-body&quot;&gt;&lt;font face=&quot;Helvetica&quot;&gt;+ getMenu() : void&lt;/font&gt;&lt;/p&gt;&lt;p style=&quot;--font-size: 13.3333px; --line-height: 1.4; line-height: 150%; margin-top: 0px; padding-left: 4px; margin-bottom: 0px; margin-right: 0px;&quot; class=&quot;cvGsUA direction-ltr align-start para-style-body&quot;&gt;&lt;font face=&quot;Helvetica&quot;&gt;+ printHello() : void&lt;/font&gt;&lt;/p&gt;&lt;p style=&quot;--font-size: 13.3333px; --line-height: 1.4; line-height: 150%; margin-top: 0px; padding-left: 4px; margin-bottom: 0px; margin-right: 0px;&quot; class=&quot;cvGsUA direction-ltr align-start para-style-body&quot;&gt;&lt;font face=&quot;Helvetica&quot;&gt;+ haveNewCustomer() : void&lt;/font&gt;&lt;/p&gt;&lt;p style=&quot;--font-size: 13.3333px; --line-height: 1.4; line-height: 150%; margin-top: 0px; padding-left: 4px; margin-bottom: 0px; margin-right: 0px;&quot; class=&quot;cvGsUA direction-ltr align-start para-style-body&quot;&gt;&lt;font face=&quot;Helvetica&quot;&gt;+ addCustomer() : void&lt;/font&gt;&lt;/p&gt;" style="verticalAlign=top;align=left;overflow=fill;html=1;whiteSpace=wrap;rounded=1;arcSize=10;fontFamily=consolas;" parent="1" vertex="1">
          <mxGeometry x="50" width="230" height="270" as="geometry" />
        </mxCell>
        <mxCell id="SG9qALcm7S1IvZvgK0gM-3" value="&lt;p style=&quot;margin: 4px 0px 0px; text-align: center; line-height: 100%;&quot;&gt;&lt;b&gt;&lt;font face=&quot;Helvetica&quot;&gt;Customer&lt;/font&gt;&lt;/b&gt;&lt;/p&gt;&lt;hr size=&quot;1&quot; style=&quot;border-style: solid; line-height: 100%;&quot;&gt;&lt;p style=&quot;--font-size: 13.3333px; --line-height: 1.4; line-height: 18px; padding-left: 4px; margin-top: 0px; margin-bottom: 0px;&quot; class=&quot;cvGsUA direction-ltr align-start para-style-body&quot;&gt;&lt;span class=&quot;OYPEnA text-decoration-none text-strikethrough-none&quot;&gt;- coundId : static int&lt;/span&gt;&lt;/p&gt;&lt;p style=&quot;--font-size: 13.3333px; --line-height: 1.4; line-height: 18px; padding-left: 4px; margin-top: 0px; margin-bottom: 0px;&quot; class=&quot;cvGsUA direction-ltr align-start para-style-body&quot;&gt;&lt;span class=&quot;OYPEnA text-decoration-none text-strikethrough-none&quot;&gt;- id : int&lt;/span&gt;&lt;/p&gt;&lt;p style=&quot;--font-size: 13.3333px; --line-height: 1.4; line-height: 18px; padding-left: 4px; margin-top: 0px; margin-bottom: 0px;&quot; class=&quot;cvGsUA direction-ltr align-start para-style-body&quot;&gt;&lt;span style=&quot;background-color: initial;&quot;&gt;- Address: string&lt;/span&gt;&lt;/p&gt;&lt;p style=&quot;--font-size: 13.3333px; --line-height: 1.4; line-height: 18px; padding-left: 4px; margin-top: 0px; margin-bottom: 0px;&quot; class=&quot;cvGsUA direction-ltr align-start para-style-body&quot;&gt;&lt;span style=&quot;background-color: initial;&quot;&gt;- PhoneNo: int&lt;/span&gt;&lt;/p&gt;&lt;p style=&quot;--font-size: 13.3333px; --line-height: 1.4; line-height: 18px; padding-left: 4px; margin-top: 0px; margin-bottom: 0px;&quot; class=&quot;cvGsUA direction-ltr align-start para-style-body&quot;&gt;&lt;span style=&quot;background-color: initial;&quot;&gt;- creditAccountList : vector&amp;lt;CreditAccount&amp;gt;&lt;/span&gt;&lt;/p&gt;&lt;p style=&quot;--font-size: 13.3333px; --line-height: 1.4; line-height: 18px; padding-left: 4px; margin-top: 0px; margin-bottom: 0px;&quot; class=&quot;cvGsUA direction-ltr align-start para-style-body&quot;&gt;&lt;span style=&quot;background-color: initial;&quot;&gt;- debitAccountList : vector&amp;lt;DebitAccount&amp;gt;&lt;/span&gt;&lt;/p&gt;&lt;p style=&quot;--font-size: 13.3333px; --line-height: 1.4; line-height: 18px; padding-left: 4px; margin-top: 0px; margin-bottom: 0px;&quot; class=&quot;cvGsUA direction-ltr align-start para-style-body&quot;&gt;&lt;span style=&quot;background-color: initial;&quot;&gt;- LoanList : vector&amp;lt;Loan&amp;gt;&lt;/span&gt;&lt;/p&gt;&lt;p style=&quot;--font-size: 13.3333px; --line-height: 1.4; line-height: 18px; padding-left: 4px; margin-top: 0px; margin-bottom: 0px;&quot; class=&quot;cvGsUA direction-ltr align-start para-style-body&quot;&gt;&lt;span style=&quot;background-color: initial;&quot;&gt;+ name : string&lt;/span&gt;&lt;/p&gt;&lt;p style=&quot;--font-size: 13.3333px; --line-height: 1.4; line-height: 18px;&quot; class=&quot;cvGsUA direction-ltr align-start para-style-body&quot;&gt;&lt;span class=&quot;OYPEnA text-decoration-none text-strikethrough-none&quot;&gt;&lt;/span&gt;&lt;/p&gt;&lt;hr&gt;&lt;div&gt;&lt;p style=&quot;--font-size: 13.3333px; --line-height: 1.4; line-height: 18px; padding-left: 4px; margin-top: 0px; margin-bottom: 0px;&quot; class=&quot;cvGsUA direction-ltr align-start para-style-body&quot;&gt;&lt;span class=&quot;OYPEnA text-decoration-none text-strikethrough-none&quot;&gt;+ GeneralInquiry(): void&lt;/span&gt;&lt;/p&gt;&lt;p style=&quot;--font-size: 13.3333px; --line-height: 1.4; line-height: 18px; padding-left: 4px; margin-top: 0px; margin-bottom: 0px;&quot; class=&quot;cvGsUA direction-ltr align-start para-style-body&quot;&gt;&lt;span style=&quot;background-color: initial;&quot;&gt;+ DepositMoney( money: int, accountId: int): void&lt;/span&gt;&lt;/p&gt;&lt;p style=&quot;--font-size: 13.3333px; --line-height: 1.4; line-height: 18px; padding-left: 4px; margin-top: 0px; margin-bottom: 0px;&quot; class=&quot;cvGsUA direction-ltr align-start para-style-body&quot;&gt;&lt;span style=&quot;background-color: initial;&quot;&gt;+ WithdrawMoney( money: int,accountId :int): void&lt;/span&gt;&lt;/p&gt;&lt;p style=&quot;--font-size: 13.3333px; --line-height: 1.4; line-height: 18px; padding-left: 4px; margin-top: 0px; margin-bottom: 0px;&quot; class=&quot;cvGsUA direction-ltr align-start para-style-body&quot;&gt;&lt;span style=&quot;background-color: initial;&quot;&gt;+ CreateAccount( money: int,type: string): void&lt;/span&gt;&lt;/p&gt;&lt;p style=&quot;--font-size: 13.3333px; --line-height: 1.4; line-height: 18px; padding-left: 4px; margin-top: 0px; margin-bottom: 0px;&quot; class=&quot;cvGsUA direction-ltr align-start para-style-body&quot;&gt;&lt;span style=&quot;background-color: initial;&quot;&gt;+ DeleteAccount( accountId: int): void&lt;/span&gt;&lt;/p&gt;&lt;p style=&quot;--font-size: 13.3333px; --line-height: 1.4; line-height: 18px; padding-left: 4px; margin-top: 0px; margin-bottom: 0px;&quot; class=&quot;cvGsUA direction-ltr align-start para-style-body&quot;&gt;&lt;span style=&quot;background-color: initial;&quot;&gt;+ ApplyForLoan( type: string, accountId: int, LoanMoney : int): void&lt;/span&gt;&lt;/p&gt;&lt;p style=&quot;--font-size: 13.3333px; --line-height: 1.4; line-height: 18px; padding-left: 4px; margin-top: 0px; margin-bottom: 0px;&quot; class=&quot;cvGsUA direction-ltr align-start para-style-body&quot;&gt;&lt;span style=&quot;background-color: initial;&quot;&gt;+ getId() : int&lt;/span&gt;&lt;/p&gt;&lt;p style=&quot;--font-size: 13.3333px; --line-height: 1.4; line-height: 18px; padding-left: 4px; margin-top: 0px; margin-bottom: 0px;&quot; class=&quot;cvGsUA direction-ltr align-start para-style-body&quot;&gt;&lt;span style=&quot;background-color: initial;&quot;&gt;+ findAccount(accountId: int, vector&amp;lt;CreditAccount&amp;gt;)&lt;/span&gt;&lt;/p&gt;&lt;p style=&quot;--font-size: 13.3333px; --line-height: 1.4; line-height: 18px; padding-left: 4px; margin-top: 0px; margin-bottom: 0px;&quot; class=&quot;cvGsUA direction-ltr align-start para-style-body&quot;&gt;+ findAccount(accountId: int, vector&amp;lt;DebitAccount&amp;gt;)&lt;span style=&quot;background-color: initial;&quot;&gt;&lt;br&gt;&lt;/span&gt;&lt;/p&gt;&lt;p style=&quot;--font-size: 13.3333px; --line-height: 1.4; line-height: 18px; padding-left: 4px; margin-top: 0px; margin-bottom: 0px;&quot; class=&quot;cvGsUA direction-ltr align-start para-style-body&quot;&gt;&lt;span style=&quot;background-color: initial;&quot;&gt;&lt;font face=&quot;Helvetica&quot;&gt;&lt;br&gt;&lt;/font&gt;&lt;/span&gt;&lt;/p&gt;&lt;/div&gt;" style="verticalAlign=top;align=left;overflow=fill;html=1;whiteSpace=wrap;rounded=1;arcSize=6;" parent="1" vertex="1">
          <mxGeometry x="40" y="520" width="310" height="410" as="geometry" />
        </mxCell>
        <mxCell id="SG9qALcm7S1IvZvgK0gM-5" value="&lt;p style=&quot;margin: 4px 0px 0px; text-align: center; line-height: 100%;&quot;&gt;&lt;b&gt;Teller&lt;/b&gt;&lt;/p&gt;&lt;hr size=&quot;1&quot; style=&quot;border-style: solid; line-height: 100%;&quot;&gt;&lt;p style=&quot;--font-size: 13.3333px; --line-height: 1.4; line-height: 18px; padding-left: 4px; margin-right: 0px; margin-top: 0px; margin-bottom: 0px;&quot; class=&quot;cvGsUA direction-ltr align-start para-style-body&quot;&gt;&lt;span class=&quot;OYPEnA text-decoration-none text-strikethrough-none&quot;&gt;- id: int&lt;/span&gt;&lt;/p&gt;&lt;p style=&quot;--font-size: 13.3333px; --line-height: 1.4; line-height: 18px; padding-left: 4px; margin-right: 0px; margin-top: 0px; margin-bottom: 0px;&quot; class=&quot;cvGsUA direction-ltr align-start para-style-body&quot;&gt;&lt;span class=&quot;OYPEnA text-decoration-none text-strikethrough-none&quot;&gt;- countId: static int&lt;/span&gt;&lt;/p&gt;&lt;p style=&quot;--font-size: 13.3333px; --line-height: 1.4; line-height: 18px; padding-left: 4px; margin-right: 0px; margin-top: 0px; margin-bottom: 0px;&quot; class=&quot;cvGsUA direction-ltr align-start para-style-body&quot;&gt;- customerList: vector&amp;lt;Customer&amp;gt;&lt;/p&gt;&lt;p style=&quot;--font-size: 13.3333px; --line-height: 1.4; line-height: 18px;&quot; class=&quot;cvGsUA direction-ltr align-start para-style-body&quot;&gt;&lt;span class=&quot;OYPEnA text-decoration-none text-strikethrough-none&quot;&gt;&lt;/span&gt;&lt;/p&gt;&lt;hr&gt;&lt;div&gt;&lt;p style=&quot;--font-size: 13.3333px; --line-height: 1.4; line-height: 18px; padding-left: 4px; margin-top: 0px; margin-bottom: 0px; margin-right: 0px;&quot; class=&quot;cvGsUA direction-ltr align-start para-style-body&quot;&gt;&lt;span class=&quot;OYPEnA text-decoration-none text-strikethrough-none&quot;&gt;+ CollectMoney(customerId: int, money:int, accountId: int): void&lt;/span&gt;&lt;/p&gt;&lt;p style=&quot;--font-size: 13.3333px; --line-height: 1.4; line-height: 18px; padding-left: 4px; margin-top: 0px; margin-bottom: 0px; margin-right: 0px;&quot; class=&quot;cvGsUA direction-ltr align-start para-style-body&quot;&gt;&lt;span style=&quot;background-color: initial;&quot;&gt;+ OpenAccount(customerId: int, money:int): bool&lt;/span&gt;&lt;/p&gt;&lt;p style=&quot;--font-size: 13.3333px; --line-height: 1.4; line-height: 18px; padding-left: 4px; margin-top: 0px; margin-bottom: 0px; margin-right: 0px;&quot; class=&quot;cvGsUA direction-ltr align-start para-style-body&quot;&gt;&lt;span style=&quot;background-color: initial;&quot;&gt;+ CloseAccount(customerId: int,&amp;nbsp;&lt;/span&gt;&lt;span style=&quot;background-color: initial;&quot;&gt;accountId: int&lt;/span&gt;&lt;span style=&quot;background-color: initial;&quot;&gt;): int&lt;/span&gt;&lt;/p&gt;&lt;p style=&quot;--font-size: 13.3333px; --line-height: 1.4; line-height: 18px; padding-left: 4px; margin-top: 0px; margin-bottom: 0px; margin-right: 0px;&quot; class=&quot;cvGsUA direction-ltr align-start para-style-body&quot;&gt;&lt;span style=&quot;background-color: initial;&quot;&gt;+ LoanRequest(customerId: int, loanMoney: int, type:string): bool&lt;/span&gt;&lt;/p&gt;&lt;p style=&quot;--font-size: 13.3333px; --line-height: 1.4; line-height: 18px; padding-left: 4px; margin-top: 0px; margin-bottom: 0px; margin-right: 0px;&quot; class=&quot;cvGsUA direction-ltr align-start para-style-body&quot;&gt;&lt;span style=&quot;background-color: initial;&quot;&gt;+ ProvideInfo (customerId: int)&lt;/span&gt;&lt;/p&gt;&lt;/div&gt;" style="verticalAlign=top;align=left;overflow=fill;html=1;whiteSpace=wrap;rounded=1;arcSize=7;" parent="1" vertex="1">
          <mxGeometry x="460" y="60" width="380" height="210" as="geometry" />
        </mxCell>
        <mxCell id="3UZ4lUis-rqjRzUQR2lQ-1" value="&lt;p style=&quot;margin: 4px 0px 0px; text-align: center; line-height: 100%;&quot;&gt;&lt;b&gt;Account&lt;/b&gt;&lt;/p&gt;&lt;hr size=&quot;1&quot; style=&quot;border-style: solid; line-height: 100%;&quot;&gt;&lt;p style=&quot;--font-size: 13.3333px; --line-height: 1.4; line-height: 150%; margin-top: 0px; padding-left: 4px; margin-bottom: 0px; margin-right: 0px;&quot; class=&quot;cvGsUA direction-ltr align-start para-style-body&quot;&gt;&lt;font face=&quot;Helvetica&quot;&gt;&lt;span style=&quot;&quot; class=&quot;OYPEnA text-decoration-none text-strikethrough-none&quot;&gt;- id: int&lt;/span&gt;&lt;/font&gt;&lt;/p&gt;&lt;p style=&quot;--font-size: 13.3333px; --line-height: 1.4; line-height: 150%; margin-top: 0px; padding-left: 4px; margin-bottom: 0px; margin-right: 0px;&quot; class=&quot;cvGsUA direction-ltr align-start para-style-body&quot;&gt;&lt;font face=&quot;Helvetica&quot;&gt;&lt;span style=&quot;&quot; class=&quot;OYPEnA text-decoration-none text-strikethrough-none&quot;&gt;- countId: static int&lt;/span&gt;&lt;/font&gt;&lt;/p&gt;&lt;p style=&quot;--font-size: 13.3333px; --line-height: 1.4; line-height: 150%; margin-top: 0px; padding-left: 4px; margin-bottom: 0px; margin-right: 0px;&quot; class=&quot;cvGsUA direction-ltr align-start para-style-body&quot;&gt;&lt;font face=&quot;Helvetica&quot;&gt;&lt;span style=&quot;background-color: initial;&quot;&gt;- customerId: int&lt;/span&gt;&lt;/font&gt;&lt;/p&gt;&lt;p style=&quot;--font-size: 13.3333px; --line-height: 1.4; line-height: 150%; margin-top: 0px; padding-left: 4px; margin-bottom: 0px; margin-right: 0px;&quot; class=&quot;cvGsUA direction-ltr align-start para-style-body&quot;&gt;&lt;font face=&quot;Helvetica&quot;&gt;&lt;span style=&quot;background-color: initial;&quot;&gt;- money: int&lt;/span&gt;&lt;/font&gt;&lt;/p&gt;&lt;hr&gt;&lt;p style=&quot;--font-size: 13.3333px; --line-height: 1.4; line-height: 150%; margin-top: 0px; padding-left: 4px; margin-bottom: 0px; margin-right: 0px;&quot; class=&quot;cvGsUA direction-ltr align-start para-style-body&quot;&gt;&lt;font face=&quot;Helvetica&quot;&gt;&lt;span style=&quot;background-color: initial;&quot;&gt;+ Account()&amp;nbsp;&lt;/span&gt;&lt;/font&gt;&lt;/p&gt;&lt;p style=&quot;--font-size: 13.3333px; --line-height: 1.4; line-height: 150%; margin-top: 0px; padding-left: 4px; margin-bottom: 0px; margin-right: 0px;&quot; class=&quot;cvGsUA direction-ltr align-start para-style-body&quot;&gt;&lt;font face=&quot;Helvetica&quot;&gt;&lt;span style=&quot;background-color: initial;&quot;&gt;+ Account(customerId:int, newMoney:int)&lt;/span&gt;&lt;/font&gt;&lt;/p&gt;&lt;p style=&quot;--font-size: 13.3333px; --line-height: 1.4; line-height: 150%; margin-top: 0px; padding-left: 4px; margin-bottom: 0px; margin-right: 0px;&quot; class=&quot;cvGsUA direction-ltr align-start para-style-body&quot;&gt;&lt;font face=&quot;Helvetica&quot;&gt;&lt;span style=&quot;background-color: initial;&quot;&gt;+ getId() : int&lt;/span&gt;&lt;/font&gt;&lt;/p&gt;&lt;p style=&quot;--font-size: 13.3333px; --line-height: 1.4; line-height: 150%; margin-top: 0px; padding-left: 4px; margin-bottom: 0px; margin-right: 0px;&quot; class=&quot;cvGsUA direction-ltr align-start para-style-body&quot;&gt;&lt;font face=&quot;Helvetica&quot;&gt;&lt;span style=&quot;background-color: initial;&quot;&gt;+ getMoney() : int&lt;/span&gt;&lt;/font&gt;&lt;/p&gt;&lt;p style=&quot;--font-size: 13.3333px; --line-height: 1.4; line-height: 150%; margin-top: 0px; padding-left: 4px; margin-bottom: 0px; margin-right: 0px;&quot; class=&quot;cvGsUA direction-ltr align-start para-style-body&quot;&gt;&lt;font face=&quot;Helvetica&quot;&gt;&lt;span style=&quot;background-color: initial;&quot;&gt;+ depositMoney(nMoney :int): void&lt;/span&gt;&lt;/font&gt;&lt;/p&gt;" style="verticalAlign=top;align=left;overflow=fill;html=1;whiteSpace=wrap;rounded=1;" parent="1" vertex="1">
          <mxGeometry x="510" y="430" width="230" height="230" as="geometry" />
        </mxCell>
        <mxCell id="3UZ4lUis-rqjRzUQR2lQ-2" value="&lt;p style=&quot;margin: 4px 0px 0px; text-align: center; line-height: 100%;&quot;&gt;&lt;b&gt;Loan&lt;/b&gt;&lt;/p&gt;&lt;hr size=&quot;1&quot; style=&quot;border-style: solid; line-height: 100%;&quot;&gt;&lt;p style=&quot;--font-size: 13.3333px; --line-height: 1.4; line-height: 150%; margin-top: 0px; padding-left: 4px; margin-bottom: 0px; margin-right: 0px;&quot; class=&quot;cvGsUA direction-ltr align-start para-style-body&quot;&gt;&lt;font face=&quot;Helvetica&quot;&gt;&lt;span style=&quot;&quot; class=&quot;OYPEnA text-decoration-none text-strikethrough-none&quot;&gt;- id: int&lt;/span&gt;&lt;/font&gt;&lt;/p&gt;&lt;p style=&quot;--font-size: 13.3333px; --line-height: 1.4; line-height: 150%; margin-top: 0px; padding-left: 4px; margin-bottom: 0px; margin-right: 0px;&quot; class=&quot;cvGsUA direction-ltr align-start para-style-body&quot;&gt;&lt;font face=&quot;Helvetica&quot;&gt;&lt;span style=&quot;background-color: initial;&quot;&gt;- accountId: int&lt;/span&gt;&lt;/font&gt;&lt;/p&gt;&lt;p style=&quot;--font-size: 13.3333px; --line-height: 1.4; line-height: 150%; margin-top: 0px; padding-left: 4px; margin-bottom: 0px; margin-right: 0px;&quot; class=&quot;cvGsUA direction-ltr align-start para-style-body&quot;&gt;&lt;font face=&quot;Helvetica&quot;&gt;&lt;span style=&quot;background-color: initial;&quot;&gt;- customerId: int&lt;/span&gt;&lt;/font&gt;&lt;/p&gt;&lt;p style=&quot;--font-size: 13.3333px; --line-height: 1.4; line-height: 150%; margin-top: 0px; padding-left: 4px; margin-bottom: 0px; margin-right: 0px;&quot; class=&quot;cvGsUA direction-ltr align-start para-style-body&quot;&gt;&lt;font face=&quot;Helvetica&quot;&gt;&lt;span style=&quot;background-color: initial;&quot;&gt;- money: int&lt;/span&gt;&lt;/font&gt;&lt;/p&gt;&lt;p style=&quot;--font-size: 13.3333px; --line-height: 1.4; line-height: 150%; margin-top: 0px; padding-left: 4px; margin-bottom: 0px; margin-right: 0px;&quot; class=&quot;cvGsUA direction-ltr align-start para-style-body&quot;&gt;+ type: string&lt;font face=&quot;Helvetica&quot;&gt;&lt;span style=&quot;background-color: initial;&quot;&gt;&lt;br&gt;&lt;/span&gt;&lt;/font&gt;&lt;/p&gt;&lt;hr&gt;&lt;p style=&quot;--font-size: 13.3333px; --line-height: 1.4; line-height: 150%; margin-top: 0px; padding-left: 4px; margin-bottom: 0px; margin-right: 0px;&quot; class=&quot;cvGsUA direction-ltr align-start para-style-body&quot;&gt;+ Loan()&lt;/p&gt;&lt;p style=&quot;--font-size: 13.3333px; --line-height: 1.4; line-height: 150%; margin-top: 0px; padding-left: 4px; margin-bottom: 0px; margin-right: 0px;&quot; class=&quot;cvGsUA direction-ltr align-start para-style-body&quot;&gt;+ Loan(newType:string, newAccountId: int, newCustomerId: int, nMoney : int)&lt;/p&gt;&lt;p style=&quot;--font-size: 13.3333px; --line-height: 1.4; line-height: 150%; margin-top: 0px; padding-left: 4px; margin-bottom: 0px; margin-right: 0px;&quot; class=&quot;cvGsUA direction-ltr align-start para-style-body&quot;&gt;+ changeMoney(nMoney: int): void&lt;/p&gt;&lt;p style=&quot;--font-size: 13.3333px; --line-height: 1.4; line-height: 150%; margin-top: 0px; padding-left: 4px; margin-bottom: 0px; margin-right: 0px;&quot; class=&quot;cvGsUA direction-ltr align-start para-style-body&quot;&gt;+ getMoney(): int&lt;/p&gt;&lt;p style=&quot;--font-size: 13.3333px; --line-height: 1.4; line-height: 150%; margin-top: 0px; padding-left: 4px; margin-bottom: 0px; margin-right: 0px;&quot; class=&quot;cvGsUA direction-ltr align-start para-style-body&quot;&gt;+ getId(): int&lt;/p&gt;" style="verticalAlign=top;align=left;overflow=fill;html=1;whiteSpace=wrap;rounded=1;arcSize=8;" parent="1" vertex="1">
          <mxGeometry x="450" y="690" width="290" height="280" as="geometry" />
        </mxCell>
        <mxCell id="3UZ4lUis-rqjRzUQR2lQ-4" value="" style="endArrow=none;html=1;endSize=12;startArrow=none;startSize=14;startFill=0;edgeStyle=orthogonalEdgeStyle;rounded=0;entryX=0.5;entryY=1;entryDx=0;entryDy=0;exitX=0.5;exitY=0;exitDx=0;exitDy=0;endFill=0;" parent="1" source="SG9qALcm7S1IvZvgK0gM-3" target="SG9qALcm7S1IvZvgK0gM-2" edge="1">
          <mxGeometry relative="1" as="geometry">
            <mxPoint x="150" y="260" as="sourcePoint" />
            <mxPoint x="310" y="260" as="targetPoint" />
          </mxGeometry>
        </mxCell>
        <mxCell id="3UZ4lUis-rqjRzUQR2lQ-5" value="+1...*" style="edgeLabel;resizable=0;html=1;align=left;verticalAlign=top;" parent="3UZ4lUis-rqjRzUQR2lQ-4" connectable="0" vertex="1">
          <mxGeometry x="-1" relative="1" as="geometry">
            <mxPoint x="10" y="-30" as="offset" />
          </mxGeometry>
        </mxCell>
        <mxCell id="3UZ4lUis-rqjRzUQR2lQ-6" value="+1" style="edgeLabel;resizable=0;html=1;align=right;verticalAlign=top;" parent="3UZ4lUis-rqjRzUQR2lQ-4" connectable="0" vertex="1">
          <mxGeometry x="1" relative="1" as="geometry">
            <mxPoint x="20" y="10" as="offset" />
          </mxGeometry>
        </mxCell>
        <mxCell id="3UZ4lUis-rqjRzUQR2lQ-7" value="" style="endArrow=none;html=1;endSize=12;startArrow=none;startSize=14;startFill=0;edgeStyle=orthogonalEdgeStyle;rounded=0;entryX=1;entryY=0.5;entryDx=0;entryDy=0;exitX=0;exitY=0.25;exitDx=0;exitDy=0;endFill=0;" parent="1" source="SG9qALcm7S1IvZvgK0gM-5" target="SG9qALcm7S1IvZvgK0gM-2" edge="1">
          <mxGeometry relative="1" as="geometry">
            <mxPoint x="330" y="260" as="sourcePoint" />
            <mxPoint x="330" y="130" as="targetPoint" />
            <Array as="points">
              <mxPoint x="380" y="185" />
              <mxPoint x="380" y="135" />
            </Array>
          </mxGeometry>
        </mxCell>
        <mxCell id="3UZ4lUis-rqjRzUQR2lQ-8" value="+1...*" style="edgeLabel;resizable=0;html=1;align=left;verticalAlign=top;" parent="3UZ4lUis-rqjRzUQR2lQ-7" connectable="0" vertex="1">
          <mxGeometry x="-1" relative="1" as="geometry">
            <mxPoint x="-35" y="48" as="offset" />
          </mxGeometry>
        </mxCell>
        <mxCell id="3UZ4lUis-rqjRzUQR2lQ-9" value="+1" style="edgeLabel;resizable=0;html=1;align=right;verticalAlign=top;" parent="3UZ4lUis-rqjRzUQR2lQ-7" connectable="0" vertex="1">
          <mxGeometry x="1" relative="1" as="geometry">
            <mxPoint x="30" y="-25" as="offset" />
          </mxGeometry>
        </mxCell>
        <mxCell id="3UZ4lUis-rqjRzUQR2lQ-10" value="" style="endArrow=none;html=1;endSize=12;startArrow=none;startSize=14;startFill=0;edgeStyle=orthogonalEdgeStyle;rounded=0;endFill=0;" parent="1" source="SG9qALcm7S1IvZvgK0gM-5" target="SG9qALcm7S1IvZvgK0gM-3" edge="1">
          <mxGeometry relative="1" as="geometry">
            <mxPoint x="460" y="270" as="sourcePoint" />
            <mxPoint x="350" y="577.5" as="targetPoint" />
            <Array as="points">
              <mxPoint x="380" y="230" />
              <mxPoint x="380" y="570" />
            </Array>
          </mxGeometry>
        </mxCell>
        <mxCell id="3UZ4lUis-rqjRzUQR2lQ-11" value="+1...*" style="edgeLabel;resizable=0;html=1;align=left;verticalAlign=top;" parent="3UZ4lUis-rqjRzUQR2lQ-10" connectable="0" vertex="1">
          <mxGeometry x="-1" relative="1" as="geometry">
            <mxPoint x="-50" y="-30" as="offset" />
          </mxGeometry>
        </mxCell>
        <mxCell id="3UZ4lUis-rqjRzUQR2lQ-12" value="+1" style="edgeLabel;resizable=0;html=1;align=right;verticalAlign=top;" parent="3UZ4lUis-rqjRzUQR2lQ-10" connectable="0" vertex="1">
          <mxGeometry x="1" relative="1" as="geometry">
            <mxPoint x="20" y="-30" as="offset" />
          </mxGeometry>
        </mxCell>
        <mxCell id="3UZ4lUis-rqjRzUQR2lQ-13" value="" style="endArrow=none;html=1;endSize=12;startArrow=none;startSize=14;startFill=0;edgeStyle=orthogonalEdgeStyle;rounded=0;endFill=0;entryX=0.997;entryY=0.288;entryDx=0;entryDy=0;entryPerimeter=0;" parent="1" target="SG9qALcm7S1IvZvgK0gM-3" edge="1">
          <mxGeometry relative="1" as="geometry">
            <mxPoint x="510" y="530" as="sourcePoint" />
            <mxPoint x="350" y="560" as="targetPoint" />
            <Array as="points">
              <mxPoint x="500" y="530" />
              <mxPoint x="500" y="600" />
              <mxPoint x="349" y="600" />
            </Array>
          </mxGeometry>
        </mxCell>
        <mxCell id="3UZ4lUis-rqjRzUQR2lQ-14" value="+1...*" style="edgeLabel;resizable=0;html=1;align=left;verticalAlign=top;" parent="3UZ4lUis-rqjRzUQR2lQ-13" connectable="0" vertex="1">
          <mxGeometry x="-1" relative="1" as="geometry">
            <mxPoint x="-40" y="-30" as="offset" />
          </mxGeometry>
        </mxCell>
        <mxCell id="3UZ4lUis-rqjRzUQR2lQ-15" value="+1" style="edgeLabel;resizable=0;html=1;align=right;verticalAlign=top;" parent="3UZ4lUis-rqjRzUQR2lQ-13" connectable="0" vertex="1">
          <mxGeometry x="1" relative="1" as="geometry">
            <mxPoint x="30" y="-28" as="offset" />
          </mxGeometry>
        </mxCell>
        <mxCell id="3UZ4lUis-rqjRzUQR2lQ-16" value="" style="endArrow=none;html=1;endSize=12;startArrow=none;startSize=14;startFill=0;edgeStyle=orthogonalEdgeStyle;rounded=0;endFill=0;entryX=1;entryY=0.75;entryDx=0;entryDy=0;exitX=0;exitY=0.5;exitDx=0;exitDy=0;" parent="1" source="3UZ4lUis-rqjRzUQR2lQ-2" target="SG9qALcm7S1IvZvgK0gM-3" edge="1">
          <mxGeometry relative="1" as="geometry">
            <mxPoint x="470" y="440" as="sourcePoint" />
            <mxPoint x="320" y="440" as="targetPoint" />
            <Array as="points">
              <mxPoint x="380" y="830" />
              <mxPoint x="380" y="680" />
              <mxPoint x="350" y="680" />
            </Array>
          </mxGeometry>
        </mxCell>
        <mxCell id="3UZ4lUis-rqjRzUQR2lQ-17" value="+0...*" style="edgeLabel;resizable=0;html=1;align=left;verticalAlign=top;" parent="3UZ4lUis-rqjRzUQR2lQ-16" connectable="0" vertex="1">
          <mxGeometry x="-1" relative="1" as="geometry">
            <mxPoint x="-40" y="-30" as="offset" />
          </mxGeometry>
        </mxCell>
        <mxCell id="3UZ4lUis-rqjRzUQR2lQ-18" value="+1" style="edgeLabel;resizable=0;html=1;align=right;verticalAlign=top;" parent="3UZ4lUis-rqjRzUQR2lQ-16" connectable="0" vertex="1">
          <mxGeometry x="1" relative="1" as="geometry">
            <mxPoint x="20" y="-148" as="offset" />
          </mxGeometry>
        </mxCell>
        <mxCell id="G3JGzyAsA4TIB2tD-lAf-8" value="&lt;p style=&quot;margin: 4px 0px 0px; text-align: center; line-height: 100%;&quot;&gt;&lt;b&gt;Account&lt;/b&gt;&lt;/p&gt;&lt;hr size=&quot;1&quot; style=&quot;border-style: solid; line-height: 100%;&quot;&gt;&lt;p style=&quot;--font-size: 13.3333px; --line-height: 1.4; line-height: 150%; margin-top: 0px; padding-left: 4px; margin-bottom: 0px; margin-right: 0px;&quot; class=&quot;cvGsUA direction-ltr align-start para-style-body&quot;&gt;&lt;font face=&quot;Helvetica&quot;&gt;&lt;span style=&quot;&quot; class=&quot;OYPEnA text-decoration-none text-strikethrough-none&quot;&gt;# id: int&lt;/span&gt;&lt;/font&gt;&lt;/p&gt;&lt;p style=&quot;--font-size: 13.3333px; --line-height: 1.4; line-height: 150%; margin-top: 0px; padding-left: 4px; margin-bottom: 0px; margin-right: 0px;&quot; class=&quot;cvGsUA direction-ltr align-start para-style-body&quot;&gt;&lt;font face=&quot;Helvetica&quot;&gt;&lt;span style=&quot;&quot; class=&quot;OYPEnA text-decoration-none text-strikethrough-none&quot;&gt;# countId: static int&lt;/span&gt;&lt;/font&gt;&lt;/p&gt;&lt;p style=&quot;--font-size: 13.3333px; --line-height: 1.4; line-height: 150%; margin-top: 0px; padding-left: 4px; margin-bottom: 0px; margin-right: 0px;&quot; class=&quot;cvGsUA direction-ltr align-start para-style-body&quot;&gt;&lt;font face=&quot;Helvetica&quot;&gt;&lt;span style=&quot;background-color: initial;&quot;&gt;# customerId: int&lt;/span&gt;&lt;/font&gt;&lt;/p&gt;&lt;p style=&quot;--font-size: 13.3333px; --line-height: 1.4; line-height: 150%; margin-top: 0px; padding-left: 4px; margin-bottom: 0px; margin-right: 0px;&quot; class=&quot;cvGsUA direction-ltr align-start para-style-body&quot;&gt;&lt;font face=&quot;Helvetica&quot;&gt;&lt;span style=&quot;background-color: initial;&quot;&gt;# money: int&lt;/span&gt;&lt;/font&gt;&lt;/p&gt;&lt;hr&gt;&lt;p style=&quot;--font-size: 13.3333px; --line-height: 1.4; line-height: 150%; margin-top: 0px; padding-left: 4px; margin-bottom: 0px; margin-right: 0px;&quot; class=&quot;cvGsUA direction-ltr align-start para-style-body&quot;&gt;&lt;font face=&quot;Helvetica&quot;&gt;&lt;span style=&quot;background-color: initial;&quot;&gt;+ Account()&amp;nbsp;&lt;/span&gt;&lt;/font&gt;&lt;/p&gt;&lt;p style=&quot;--font-size: 13.3333px; --line-height: 1.4; line-height: 150%; margin-top: 0px; padding-left: 4px; margin-bottom: 0px; margin-right: 0px;&quot; class=&quot;cvGsUA direction-ltr align-start para-style-body&quot;&gt;&lt;font face=&quot;Helvetica&quot;&gt;&lt;span style=&quot;background-color: initial;&quot;&gt;+ Account(customerId:int, newMoney:int)&lt;/span&gt;&lt;/font&gt;&lt;/p&gt;&lt;p style=&quot;--font-size: 13.3333px; --line-height: 1.4; line-height: 150%; margin-top: 0px; padding-left: 4px; margin-bottom: 0px; margin-right: 0px;&quot; class=&quot;cvGsUA direction-ltr align-start para-style-body&quot;&gt;&lt;font face=&quot;Helvetica&quot;&gt;&lt;span style=&quot;background-color: initial;&quot;&gt;+ getId() : int&lt;/span&gt;&lt;/font&gt;&lt;/p&gt;&lt;p style=&quot;--font-size: 13.3333px; --line-height: 1.4; line-height: 150%; margin-top: 0px; padding-left: 4px; margin-bottom: 0px; margin-right: 0px;&quot; class=&quot;cvGsUA direction-ltr align-start para-style-body&quot;&gt;&lt;font face=&quot;Helvetica&quot;&gt;&lt;span style=&quot;background-color: initial;&quot;&gt;+ getMoney() : int&lt;/span&gt;&lt;/font&gt;&lt;/p&gt;&lt;p style=&quot;--font-size: 13.3333px; --line-height: 1.4; line-height: 150%; margin-top: 0px; padding-left: 4px; margin-bottom: 0px; margin-right: 0px;&quot; class=&quot;cvGsUA direction-ltr align-start para-style-body&quot;&gt;&lt;font face=&quot;Helvetica&quot;&gt;&lt;span style=&quot;background-color: initial;&quot;&gt;+ depositMoney(nMoney :int): void&lt;/span&gt;&lt;/font&gt;&lt;/p&gt;" style="verticalAlign=top;align=left;overflow=fill;html=1;whiteSpace=wrap;rounded=1;arcSize=10;" parent="1" vertex="1">
          <mxGeometry x="510" y="430" width="230" height="230" as="geometry" />
        </mxCell>
        <mxCell id="G3JGzyAsA4TIB2tD-lAf-9" value="&lt;p style=&quot;margin: 4px 0px 0px; text-align: center; line-height: 100%;&quot;&gt;&lt;b&gt;CreditAccount&lt;/b&gt;&lt;/p&gt;&lt;hr size=&quot;1&quot; style=&quot;border-style: solid; line-height: 100%;&quot;&gt;&lt;p style=&quot;--font-size: 13.3333px; --line-height: 1.4; line-height: 150%; margin-top: 0px; padding-left: 4px; margin-bottom: 0px; margin-right: 0px;&quot; class=&quot;cvGsUA direction-ltr align-start para-style-body&quot;&gt;&lt;br&gt;&lt;/p&gt;&lt;hr&gt;&lt;p style=&quot;--font-size: 13.3333px; --line-height: 1.4; line-height: 150%; margin-top: 0px; padding-left: 4px; margin-bottom: 0px; margin-right: 0px;&quot; class=&quot;cvGsUA direction-ltr align-start para-style-body&quot;&gt;&lt;font face=&quot;Helvetica&quot;&gt;&lt;span style=&quot;background-color: initial;&quot;&gt;+ CreditAccount( newCustomerId: int, newMoney: int)&lt;/span&gt;&lt;/font&gt;&lt;/p&gt;&lt;p style=&quot;--font-size: 13.3333px; --line-height: 1.4; line-height: 150%; margin-top: 0px; padding-left: 4px; margin-bottom: 0px; margin-right: 0px;&quot; class=&quot;cvGsUA direction-ltr align-start para-style-body&quot;&gt;&lt;font face=&quot;Helvetica&quot;&gt;&lt;span style=&quot;background-color: initial;&quot;&gt;+ withdrawMoney(newCustomerId: int, newMoney:int): void&lt;/span&gt;&lt;/font&gt;&lt;/p&gt;" style="verticalAlign=top;align=left;overflow=fill;html=1;whiteSpace=wrap;rounded=1;arcSize=10;" parent="1" vertex="1">
          <mxGeometry x="1000" y="290" width="230" height="230" as="geometry" />
        </mxCell>
        <mxCell id="G3JGzyAsA4TIB2tD-lAf-10" style="edgeStyle=orthogonalEdgeStyle;rounded=0;orthogonalLoop=1;jettySize=auto;html=1;entryX=0.991;entryY=0.357;entryDx=0;entryDy=0;entryPerimeter=0;" parent="1" source="G3JGzyAsA4TIB2tD-lAf-9" target="G3JGzyAsA4TIB2tD-lAf-8" edge="1">
          <mxGeometry relative="1" as="geometry" />
        </mxCell>
        <mxCell id="G3JGzyAsA4TIB2tD-lAf-11" value="&lt;p style=&quot;margin: 4px 0px 0px; text-align: center; line-height: 100%;&quot;&gt;&lt;b&gt;DebitAccount&lt;/b&gt;&lt;/p&gt;&lt;hr size=&quot;1&quot; style=&quot;border-style: solid; line-height: 100%;&quot;&gt;&lt;p style=&quot;--font-size: 13.3333px; --line-height: 1.4; line-height: 150%; margin-top: 0px; padding-left: 4px; margin-bottom: 0px; margin-right: 0px;&quot; class=&quot;cvGsUA direction-ltr align-start para-style-body&quot;&gt;&lt;br&gt;&lt;/p&gt;&lt;hr&gt;&lt;p style=&quot;--font-size: 13.3333px; --line-height: 1.4; line-height: 150%; margin-top: 0px; padding-left: 4px; margin-bottom: 0px; margin-right: 0px;&quot; class=&quot;cvGsUA direction-ltr align-start para-style-body&quot;&gt;&lt;font face=&quot;Helvetica&quot;&gt;&lt;span style=&quot;background-color: initial;&quot;&gt;+ DebitAccount( newCustomerId: int, newMoney: int)&lt;/span&gt;&lt;/font&gt;&lt;/p&gt;&lt;p style=&quot;--font-size: 13.3333px; --line-height: 1.4; line-height: 150%; margin-top: 0px; padding-left: 4px; margin-bottom: 0px; margin-right: 0px;&quot; class=&quot;cvGsUA direction-ltr align-start para-style-body&quot;&gt;&lt;font face=&quot;Helvetica&quot;&gt;&lt;span style=&quot;background-color: initial;&quot;&gt;+ withdrawMoney(newCustomerId: int, newMoney:int): void&lt;/span&gt;&lt;/font&gt;&lt;/p&gt;" style="verticalAlign=top;align=left;overflow=fill;html=1;whiteSpace=wrap;rounded=1;arcSize=9;" parent="1" vertex="1">
          <mxGeometry x="1000" y="570" width="230" height="230" as="geometry" />
        </mxCell>
        <mxCell id="G3JGzyAsA4TIB2tD-lAf-12" style="edgeStyle=orthogonalEdgeStyle;rounded=0;orthogonalLoop=1;jettySize=auto;html=1;entryX=1.009;entryY=0.613;entryDx=0;entryDy=0;entryPerimeter=0;" parent="1" source="G3JGzyAsA4TIB2tD-lAf-11" target="G3JGzyAsA4TIB2tD-lAf-8" edge="1">
          <mxGeometry relative="1" as="geometry">
            <mxPoint x="800" y="570" as="targetPoint" />
          </mxGeometry>
        </mxCell>
        <mxCell id="o9uDbEkDoMfvt9pyVXDR-1" value="+ Tính đóng gói: các trường dữ liệu có private, protected.&lt;div&gt;&lt;br&gt;&lt;div&gt;+ Tính kế thừa: 2 class CreditAccount, Debit Account kế thừa các trường dữ liệu, hàm từ class Account.&lt;/div&gt;&lt;/div&gt;" style="shape=note;whiteSpace=wrap;html=1;backgroundOutline=1;fontColor=#000000;darkOpacity=0.05;fillColor=#FFF9B2;strokeColor=none;fillStyle=solid;direction=west;gradientDirection=north;gradientColor=#FFF2A1;shadow=1;size=20;pointerEvents=1;align=left;" vertex="1" parent="1">
          <mxGeometry x="770" y="700" width="210" height="160" as="geometry" />
        </mxCell>
      </root>
    </mxGraphModel>
  </diagram>
</mxfile>
